# xmcd
#
# Track frame offsets: 
#        150
#        37679
#        72404
#        101063
#        139038
#        166618
#
# Disc length: 3015 seconds
#
# Revision: 2
# Processed by: cddbd v1.5.2PL0 Copyright (c) Steve Scherf et al.
# Submitted via: ExactAudioCopy v0.95b4
#
DISCID=440bc506
DTITLE=Animus - Poems for the Aching, Swords for the Infuriated
DYEAR=2005
DGENRE=Black Metal
TTITLE0=I
TTITLE1=II
TTITLE2=III
TTITLE3=IV
TTITLE4=V
TTITLE5=VI
EXTD=
EXTT0=
EXTT1=
EXTT2=
EXTT3=
EXTT4=
EXTT5=
PLAYORDER=
